<?xml version="1.0" encoding="utf-8"?>
<!-- Generator: Adobe Illustrator 21.0.2, SVG Export Plug-In . SVG Version: 6.00 Build 0)  -->
<svg version="1.1" id="Layer_1" xmlns="http://www.w3.org/2000/svg" xmlns:xlink="http://www.w3.org/1999/xlink" x="0px" y="0px"
	 viewBox="0 0 366.5 274" style="enable-background:new 0 0 366.5 274;" xml:space="preserve">
<style type="text/css">
	.st0{fill:#FFFFFF;}
	.st1{font-family:'Tahoma';}
	.st2{font-size:35.5499px;}
	.st3{fill:none;stroke:#FFFFFF;stroke-miterlimit:10;}
</style>
<g>
	<path class="st0" d="M79.4,42.2l7.8-0.6l7.8-0.4l7.9-0.2c2.6,0,5.2-0.1,7.9-0.1c10.5,0.1,21,0.5,31.6,1.5
		c5.3,0.5,10.5,1.2,15.8,2.1c5.3,0.8,10.5,1.9,15.7,3.1c5.2,1.2,10.4,2.6,15.6,4.3c5.2,1.6,10.3,3.6,15.3,5.8
		c10,4.5,19.8,10.1,28.6,17.4c8.8,7.2,16.7,16.1,22.3,26.4c5.7,10.2,9.4,21.7,11,33.2c1.6,11.6,1.2,23.3-0.8,34.8l-1.7,9.3
		l-10.2,0.3c-5,0.2-10.1-0.2-15.3-1.1c-5.2-0.9-10.4-2.4-15.3-4.6c-5-2.2-9.6-5.1-13.8-8.4c-4.2-3.3-7.8-7-11.1-10.8
		c-6.5-7.7-11.4-15.7-15.9-23.5c-4.4-7.8-8.4-15.5-12.5-22.7c-2-3.6-4.1-7.1-6.3-10.4c-2.1-3.3-4.3-6.6-6.7-9.6
		c-4.6-6.1-9.8-11.3-15.5-15.6c-5.7-4.2-12-7.7-18.8-10c-6.8-2.4-14.2-3.9-21.9-4.6c-1.9-0.2-3.9-0.3-5.8-0.4
		c-1.9-0.1-4-0.1-5.8-0.2c-3.5,0-7,0.2-10.3,0.8c-3.3,0.6-6.5,1.5-9.6,2.7c-3,1.2-5.9,2.8-8.5,4.6c-10.5,7.4-16.8,20.2-16.2,33.7
		c0.2,6.7,1.9,13.5,5.1,19.9c3.2,6.4,7.7,12.3,13.2,17.4c5.5,5.2,12,9.5,18.9,13.3c3.5,1.9,7.1,3.6,10.8,5.1
		c3.7,1.6,7.6,2.9,11.5,4.1l-7,1.3c3.4-2.2,6.6-4.9,9.1-8c2.6-3.1,4.7-6.5,6-10.2c2.8-7.5,2.1-16.2-1.2-24.4
		c-1.6-4.2-3.7-8.2-6.3-12.1c-2.8-4.2-5.4-8.6-7.4-13.4c-1.9-4.8-3.3-10-3-15.3c0.2-2.7,0.8-5.3,2.1-7.7c0.6-1.2,1.4-2.3,2.3-3.2
		c0.9-1,1.9-1.8,3.1-2.5l0.8,1.4c-0.9,0.6-1.7,1.4-2.4,2.3c-0.7,0.9-1.3,1.9-1.8,3c-0.9,2.1-1.3,4.4-1.3,6.8
		c0.1,4.7,1.7,9.3,3.8,13.6c2.2,4.3,4.8,8.3,7.8,12.1c3,3.9,5.7,8.1,7.8,12.6c2.1,4.5,3.7,9.3,4.3,14.2c0.3,2.5,0.4,5,0.3,7.5
		c-0.2,2.5-0.6,5-1.2,7.4c-1.3,4.9-3.6,9.4-6.6,13.4c-3,4-6.6,7.5-10.7,10.4l-0.5,0.3l-0.6-0.1c-8.4-2.2-16.7-5-24.6-8.7
		c-7.9-3.8-15.4-8.4-22.1-14.1c-6.7-5.7-12.5-12.5-16.7-20.3c-4.2-7.7-7-16.4-7.5-25.2c-0.3-4.4-0.1-8.9,0.7-13.2
		c0.8-4.4,2-8.7,3.9-12.7c1.8-4.1,4.1-7.9,6.9-11.4c2.8-3.5,6-6.6,9.5-9.3c7.1-5.4,15.5-8.8,24.2-10.5c4.3-0.8,8.8-1.3,13.2-1.3
		c4.4,0,8.7,0.1,13.1,0.5c8.7,0.7,17.4,2.4,25.7,5.3c8.3,2.8,16.2,7,23.3,12.3c7,5.3,13.2,11.7,18.5,18.7c5.3,7,9.8,14.5,14,22.1
		c4.2,7.6,8.1,15.3,12.2,22.9c4.1,7.5,8.5,14.9,13.9,21.5c5.4,6.5,11.9,12.2,19.5,15.8c7.6,3.6,16.1,5.1,24.6,5.1l-1.3,1.1
		c2.1-10,2.7-20.4,1.6-30.6c-1.1-10.2-4.1-20.2-8.8-29.2c-2.4-4.5-5.2-8.8-8.4-12.8c-3.2-4-6.8-7.7-10.6-11.1
		c-7.7-6.8-16.5-12.4-25.7-17c-18.6-9.1-38.8-14.3-59.3-17.6c-20.5-3.2-41.3-4.5-62-4.5V42.2z"/>
</g>
<text transform="matrix(1 0 0 1 81.0616 235.3115)" class="st0 st1 st2">second kite</text>
<g>
	<line class="st3" x1="164.5" y1="77" x2="231.4" y2="77"/>
	<line class="st3" x1="169.5" y1="88.3" x2="243.3" y2="88.3"/>
	<line class="st3" x1="174.6" y1="99.6" x2="248.9" y2="99.6"/>
	<line class="st3" x1="179.7" y1="110.8" x2="267.1" y2="110.8"/>
	<line class="st3" x1="184.8" y1="122.1" x2="279" y2="122.1"/>
	<line class="st3" x1="189.8" y1="133.3" x2="290.9" y2="133.3"/>
	<line class="st3" x1="194.9" y1="144.6" x2="302.8" y2="144.6"/>
	<line class="st3" x1="214.9" y1="155.9" x2="314.7" y2="155.9"/>
	<line class="st3" x1="236.9" y1="167.1" x2="326.6" y2="167.1"/>
	<line class="st3" x1="256.2" y1="178.4" x2="338.5" y2="178.4"/>
</g>
<g>
	<line class="st3" x1="104.7" y1="99.4" x2="113.4" y2="99.4"/>
	<line class="st3" x1="111.1" y1="110.6" x2="125.3" y2="110.6"/>
	<line class="st3" x1="115.4" y1="121.9" x2="137.2" y2="121.9"/>
	<line class="st3" x1="118.2" y1="133.1" x2="149.1" y2="133.1"/>
	<line class="st3" x1="115.4" y1="144.4" x2="161" y2="144.4"/>
	<line class="st3" x1="109" y1="155.7" x2="172.9" y2="155.7"/>
	<line class="st3" x1="102.5" y1="166.9" x2="184.8" y2="166.9"/>
</g>
</svg>
