<?xml version="1.0" encoding="utf-8"?>
<!-- Generator: Adobe Illustrator 21.0.2, SVG Export Plug-In . SVG Version: 6.00 Build 0)  -->
<svg version="1.1" id="Layer_1" xmlns="http://www.w3.org/2000/svg" xmlns:xlink="http://www.w3.org/1999/xlink" x="0px" y="0px"
	 viewBox="0 0 296 274" style="enable-background:new 0 0 296 274;" xml:space="preserve">
<style type="text/css">
	.st0{fill:#FFFFFF;}
	.st1{font-family:'Tahoma';}
	.st2{font-size:35.5499px;}
</style>
<g>
	<path class="st0" d="M127.5,42.2c2.2-0.1,4.4-0.3,6.7-0.4c2.2,0,4.5-0.1,6.7-0.1c2.2,0,4.5,0,6.7,0l3.4,0.1l3.4,0.2
		c9,0.5,18,1.5,26.9,3.3c8.9,1.9,17.8,4.4,26.5,8.1c4.3,1.8,8.6,3.9,12.7,6.3c4.1,2.4,8.1,5.1,11.9,8.1c7.6,6,14.3,13.3,19.8,21.5
		c5.5,8.2,9.5,17.4,12.2,26.8c2.7,9.4,4.1,19.2,4.3,28.9c0.3,9.7-0.5,19.3-2.2,28.9l-1.8,9.7l-10.4,0.2c-8.6,0.2-17.5-0.2-26.8-2.1
		c-4.6-0.9-9.2-2.3-13.9-4.2c-4.6-1.9-9.2-4.4-13.3-7.6c-4.2-3.2-7.9-7-11.1-11c-3.1-4.1-5.6-8.4-7.6-12.7
		c-4.1-8.6-6.5-16.9-8.9-24.6c-2.3-7.7-4.4-14.8-7.2-21c-2.7-6.3-6-11.5-10.2-15.8c-4.1-4.3-9.2-7.8-15.1-10.4
		c-3-1.3-6.1-2.5-9.4-3.4c-3.3-0.9-6.7-1.8-10.2-2.4c-7-1.3-14.4-2-21.9-2.4c-1.9-0.1-3.8-0.1-5.6-0.2l-1.4,0l-1.3,0
		c-0.8,0-1.6,0-2.5,0c-3.3,0.1-6.5,0.5-9.7,1.1c-6.4,1.3-12.4,3.6-17.8,7c-5.4,3.3-10.2,7.6-13.9,12.8c-3.7,5.1-6.5,11-8.2,17.5
		c-1.7,6.4-2.2,13.3-1.9,20.4c0.3,7.1,1.6,14.3,3.5,21.4c1.8,7.2,4.4,14.3,7.5,21.3l-8.8-4.8c4.2-0.2,8.4-0.5,12.6-1
		c4.1-0.5,8.2-1.1,12.2-1.8c7.9-1.6,15.3-4.1,21.2-8.8c1.5-1.2,2.8-2.5,4.1-3.9c0.7-0.7,1.3-1.5,1.9-2.2c0.6-0.8,1.2-1.6,1.7-2.4
		c2.3-3.3,4.2-7,5.9-10.9c1.7-3.9,3.3-7.9,4.8-12c1.5-4.1,3-8.2,4.5-12.3l1.6,0.4c-2,8.5-4,17-6.8,25.3c-1.4,4.2-3.1,8.3-5.2,12.2
		c-2.1,3.9-4.8,7.5-8,10.7c-3.2,3.1-7,5.6-11,7.6c-4,2-8.2,3.5-12.4,4.7c-8.5,2.4-17.2,3.6-25.9,4.6l-0.9,0.1l-0.4-0.8
		c-7.2-14.4-12.7-29.9-14.2-46.1c-0.7-8.1-0.4-16.3,1.3-24.3c1.7-8,4.9-15.7,9.5-22.5c4.6-6.8,10.6-12.6,17.4-17.1
		c6.8-4.5,14.5-7.7,22.5-9.5c4-0.9,8-1.5,12.1-1.7c4.1-0.2,8.1-0.1,12.1,0c8.1,0.3,16.1,0.9,24.1,2.3c8,1.4,15.9,3.5,23.4,6.8
		c7.5,3.3,14.5,7.9,20.2,13.8c5.7,5.9,10,13.1,13.2,20.6c3.2,7.5,5.5,15.3,7.7,22.9c2.2,7.7,4.4,15.3,7.8,22.5
		c1.7,3.6,3.6,7,5.9,10.1c2.3,3.1,5,5.9,8.1,8.3c6.1,4.8,13.5,7.8,21.2,9.5c7.7,1.7,15.6,2.3,23.5,2.4l-1.4,1.1
		c1.8-8.6,2.7-17.3,2.8-26c0-8.7-0.9-17.5-3-25.9c-2.1-8.5-5.3-16.6-9.8-24.1c-4.5-7.5-10.1-14.2-16.7-19.9
		c-6.6-5.7-14-10.5-21.8-14.4c-7.8-3.9-16.1-6.9-24.6-9.3c-16.9-4.7-34.5-6.7-52.1-7.4L127.5,42.2z"/>
</g>
<text transform="matrix(1 0 0 1 56.6328 239.5)" class="st0 st1 st2">second kite</text>
</svg>
